<?xml version="1.0" standalone="no"?>
<!DOCTYPE svg PUBLIC "-//W3C//DTD SVG 20010904//EN"
 "http://www.w3.org/TR/2001/REC-SVG-20010904/DTD/svg10.dtd">
<svg version="1.0" xmlns="http://www.w3.org/2000/svg"
 width="180.000000pt" height="180.000000pt" viewBox="0 0 180.000000 180.000000"
 preserveAspectRatio="xMidYMid meet">

<g transform="translate(0.000000,180.000000) scale(0.100000,-0.100000)"
fill="#000000" stroke="none">
<path d="M1005 1420 c-8 -13 -11 -12 56 -14 64 -3 135 -38 171 -86 25 -34 38
-38 38 -12 0 25 -56 77 -110 101 -48 22 -144 28 -155 11z"/>
<path d="M760 1344 c-38 -12 -100 -50 -100 -61 0 -17 2 -17 52 10 46 23 146
30 201 13 40 -12 36 19 -4 33 -32 11 -120 14 -149 5z"/>
<path d="M749 1191 c-23 -23 -29 -38 -29 -71 0 -79 89 -129 146 -82 53 42 59
109 15 153 -41 40 -91 40 -132 0z m108 -17 c12 -19 11 -24 -5 -44 -34 -42 -86
5 -56 49 19 26 41 24 61 -5z"/>
<path d="M1019 1189 c-76 -81 15 -210 112 -159 25 14 49 62 49 100 0 46 -47
90 -95 90 -28 0 -44 -7 -66 -31z m108 -15 c12 -19 11 -24 -6 -45 -16 -19 -23
-22 -37 -13 -34 20 -40 41 -19 64 22 25 42 23 62 -6z"/>
<path d="M1375 896 c-24 -7 -41 -19 -43 -29 -3 -17 -1 -17 33 -2 54 22 121 19
181 -9 44 -20 54 -31 69 -70 22 -57 15 -101 -31 -183 -31 -57 -34 -82 -7 -65
16 11 71 124 78 164 17 89 -47 176 -144 197 -63 13 -84 13 -136 -3z"/>
<path d="M224 886 c-80 -35 -100 -127 -49 -226 48 -96 115 -177 115 -140 0 5
-22 43 -49 85 -58 89 -75 134 -67 179 8 43 40 72 97 87 38 10 53 10 94 -4 59
-21 65 -21 65 -3 0 33 -144 49 -206 22z"/>
<path d="M1375 824 c-174 -75 -265 -100 -413 -115 -178 -18 -326 7 -493 84
-110 51 -174 54 -209 9 -41 -51 -14 -128 78 -220 174 -175 526 -238 821 -146
117 36 262 108 350 174 37 28 81 96 81 126 0 33 -39 85 -75 100 -47 19 -71 18
-140 -12z m75 -28 c0 -36 -17 -76 -36 -83 -19 -7 -68 41 -61 60 4 12 66 47 84
47 7 0 13 -11 13 -24z m-1054 -2 c22 -9 50 -21 64 -26 l25 -10 -24 -19 c-45
-37 -96 -18 -130 49 -10 19 -9 22 7 22 11 0 37 -7 58 -16z m914 -58 c0 -12 -5
-37 -11 -55 -15 -42 -54 -43 -94 -1 -16 16 -27 32 -24 34 7 8 103 45 117 45 6
1 12 -10 12 -23z m-712 -22 c39 -8 40 -16 6 -43 -52 -41 -94 -19 -94 48 0 29
0 30 28 15 15 -7 42 -17 60 -20z m542 -31 c0 -34 -34 -93 -54 -93 -20 0 -46
28 -62 65 l-12 30 51 11 c76 17 77 17 77 -13z m-341 -9 c2 -1 -5 -20 -15 -41
-13 -25 -27 -39 -42 -41 -33 -5 -72 34 -72 71 l0 29 63 -7 c34 -4 64 -9 66
-11z m177 -26 c-16 -80 -65 -101 -110 -47 -14 17 -26 34 -26 39 0 5 -3 15 -6
24 -5 14 5 16 71 16 l78 0 -7 -32z m468 -24 c9 -3 16 -9 16 -13 0 -10 -80 -54
-86 -48 -3 3 2 19 11 36 15 31 29 37 59 25z m-985 -28 c7 -8 15 -31 18 -51 l6
-37 -33 17 c-18 9 -45 28 -59 41 -22 21 -24 26 -11 34 22 14 66 12 79 -4z
m862 -26 c30 -17 23 -34 -24 -52 -23 -10 -46 -18 -50 -18 -9 0 9 38 31 63 18
20 18 20 43 7z m-706 -55 c14 -13 25 -34 25 -45 0 -23 -6 -23 -89 7 l-45 16
28 24 c34 29 51 29 81 -2z m586 -5 c20 -16 22 -21 10 -29 -17 -11 -142 -44
-147 -38 -2 1 6 17 16 35 32 52 82 65 121 32z m-391 -32 c11 -12 20 -30 20
-39 0 -15 -7 -17 -57 -12 -32 3 -66 9 -76 12 -17 6 -17 8 3 34 28 35 80 37
110 5z m190 2 c33 -33 25 -47 -32 -54 -109 -13 -116 -8 -68 43 35 36 71 40
100 11z"/>
<path d="M450 255 c0 -27 81 -105 149 -143 62 -35 71 -37 156 -37 97 0 195 27
195 53 0 9 -6 12 -17 7 -94 -36 -191 -43 -269 -20 -58 17 -150 82 -177 125
-21 33 -37 39 -37 15z"/>
</g>
</svg>
