<?xml version="1.0" encoding="UTF-8"?>
<!DOCTYPE svg PUBLIC "-//W3C//DTD SVG 1.1//EN" "http://www.w3.org/Graphics/SVG/1.1/DTD/svg11.dtd">
<svg xmlns="http://www.w3.org/2000/svg" version="1.1" width="180px" height="180px" style="shape-rendering:geometricPrecision; text-rendering:geometricPrecision; image-rendering:optimizeQuality; fill-rule:evenodd; clip-rule:evenodd" xmlns:xlink="http://www.w3.org/1999/xlink">
<g><path style="opacity:0.997" fill="#bac3cf" d="M -0.5,-0.5 C 59.5,-0.5 119.5,-0.5 179.5,-0.5C 179.5,59.5 179.5,119.5 179.5,179.5C 119.5,179.5 59.5,179.5 -0.5,179.5C -0.5,119.5 -0.5,59.5 -0.5,-0.5 Z"/></g>
<g><path style="opacity:1" fill="#101313" d="M 77.5,13.5 C 93.8024,11.7755 109.469,14.1089 124.5,20.5C 139.547,15.4411 150.38,20.1077 157,34.5C 155.531,48.7766 157.864,62.4432 164,75.5C 166.83,107.648 155.663,133.481 130.5,153C 123.642,157.093 116.309,160.093 108.5,162C 99.1333,162.911 89.8,164.078 80.5,165.5C 71.2189,164.514 62.5522,161.68 54.5,157C 42.5431,157.766 32.3764,153.933 24,145.5C 19.6659,138.804 19.4992,131.97 23.5,125C 20.5913,118.678 18.0913,112.178 16,105.5C 11.3516,57.7027 31.8516,27.0361 77.5,13.5 Z"/></g>
<g><path style="opacity:1" fill="#4e901c" d="M 131.5,21.5 C 139.266,19.7031 145.766,22.0364 151,28.5C 155.073,33.8588 156.406,39.8588 155,46.5C 151.946,57.2733 147.279,67.2733 141,76.5C 133.421,86.6576 126.088,96.991 119,107.5C 113.866,113.635 108.366,119.469 102.5,125C 92.8333,132 83.1667,139 73.5,146C 63.814,151.339 53.4807,153.672 42.5,153C 36.077,151.866 30.577,149.032 26,144.5C 21.3397,137.389 21.673,130.389 27,123.5C 30.6667,118.833 34.3333,114.167 38,109.5C 49.8808,101.292 60.8808,91.9591 71,81.5C 76.2596,74.2366 82.2596,67.5699 89,61.5C 90.122,59.5932 90.9553,57.5932 91.5,55.5C 92.552,55.6495 93.552,55.4828 94.5,55C 97.0671,51.997 99.7337,49.1637 102.5,46.5C 101.253,49.8672 101.253,53.2005 102.5,56.5C 101.542,56.9528 100.708,57.6195 100,58.5C 98.1935,62.918 96.1935,67.2514 94,71.5C 89.9131,74.916 86.5797,78.916 84,83.5C 75.4617,90.371 67.9617,98.2043 61.5,107C 52.5011,112.762 44.3345,119.595 37,127.5C 36.1672,130.818 37.5005,132.485 41,132.5C 52.5742,129.604 62.0742,123.437 69.5,114C 73.2896,111.623 77.2896,109.623 81.5,108C 85.043,103.084 88.2097,97.9172 91,92.5C 96.7926,88.3533 102.959,84.8533 109.5,82C 113.218,77.9619 115.885,73.7952 117.5,69.5C 121.184,70.7278 124.85,70.7278 128.5,69.5C 128.389,70.1174 128.056,70.6174 127.5,71C 124.833,71.3333 122.167,71.6667 119.5,72C 129.312,74.0201 133.312,70.1868 131.5,60.5C 131.246,59.6679 130.246,59.0013 128.5,58.5C 130.099,58.7678 131.432,58.4345 132.5,57.5C 131.833,56.8333 131.167,56.1667 130.5,55.5C 138.941,54.976 141.607,50.6427 138.5,42.5C 139.167,42.5 139.5,42.1667 139.5,41.5C 140.708,42.2341 142.041,42.5674 143.5,42.5C 143.702,40.0504 143.369,37.717 142.5,35.5C 144.147,32.2475 143.48,29.4142 140.5,27C 138.613,26.2204 136.946,26.3871 135.5,27.5C 133.847,27.3404 132.514,26.6737 131.5,25.5C 133.117,24.962 134.784,24.6287 136.5,24.5C 136.5,23.5 136.5,22.5 136.5,21.5C 134.833,21.5 133.167,21.5 131.5,21.5 Z"/></g>
<g><path style="opacity:1" fill="#90ce39" d="M 131.5,21.5 C 133.167,21.5 134.833,21.5 136.5,21.5C 136.5,22.5 136.5,23.5 136.5,24.5C 134.784,24.6287 133.117,24.962 131.5,25.5C 129.833,25.5 128.167,25.5 126.5,25.5C 126.5,24.8333 126.5,24.1667 126.5,23.5C 127.78,22.0687 129.447,21.4021 131.5,21.5 Z"/></g>
<g><path style="opacity:1" fill="#eaf1f4" d="M 111.5,31.5 C 110.974,33.2303 109.974,34.5637 108.5,35.5C 108.062,35.5654 107.728,35.3988 107.5,35C 108.927,31.5558 110.26,28.0558 111.5,24.5C 112.167,23.1667 112.833,23.1667 113.5,24.5C 112.675,26.8013 112.008,29.1346 111.5,31.5 Z"/></g>
<g><path style="opacity:1" fill="#5cafd4" d="M 111.5,31.5 C 112.008,29.1346 112.675,26.8013 113.5,24.5C 112.833,23.1667 112.167,23.1667 111.5,24.5C 110.26,28.0558 108.927,31.5558 107.5,35C 107.728,35.3988 108.062,35.5654 108.5,35.5C 102.833,42.1667 97.1667,48.8333 91.5,55.5C 80.6651,66.1695 70.3318,77.3362 60.5,89C 52.9093,95.7648 44.9093,101.931 36.5,107.5C 32.2131,108.522 28.0464,109.855 24,111.5C 23.4092,112.483 23.7425,113.15 25,113.5C 28.0565,112.112 31.2231,111.112 34.5,110.5C 33.4884,111.872 32.4884,113.205 31.5,114.5C 29.2433,114.962 27.2433,115.962 25.5,117.5C 25.8555,118.522 26.5222,119.189 27.5,119.5C 27.2172,120.289 26.7172,120.956 26,121.5C 19.1185,111.099 16.4518,99.7652 18,87.5C 21.0072,49.1664 41.1739,25.6664 78.5,17C 93.4681,14.8337 107.801,16.8337 121.5,23C 118,25.6686 114.667,28.502 111.5,31.5 Z"/></g>
<g><path style="opacity:1" fill="#ecf5fa" d="M 59.5,26.5 C 62.8551,27.8476 63.8551,30.1809 62.5,33.5C 61.289,31.5781 59.9557,29.7448 58.5,28C 59.056,27.6174 59.3893,27.1174 59.5,26.5 Z"/></g>
<g><path style="opacity:1" fill="#edf6fa" d="M 64.5,23.5 C 66.0174,23.5106 67.1841,24.1772 68,25.5C 68.2488,28.8325 69.0821,31.9992 70.5,35C 69.9896,36.8261 69.1562,36.9928 68,35.5C 66.5226,31.5701 65.3559,27.5701 64.5,23.5 Z"/></g>
<g><path style="opacity:1" fill="#eef6fa" d="M 105.5,22.5 C 106.497,22.4701 107.164,22.9701 107.5,24C 107.046,26.0364 106.213,27.8697 105,29.5C 104.297,27.0709 104.463,24.7375 105.5,22.5 Z"/></g>
<g><path style="opacity:1" fill="#ebf4f9" d="M 70.5,21.5 C 71.4959,21.4142 72.3292,21.7476 73,22.5C 73.6667,24.8333 73.6667,27.1667 73,29.5C 71.5544,27.0585 70.7211,24.3919 70.5,21.5 Z"/></g>
<g><path style="opacity:1" fill="#ebf5f9" d="M 99.5,20.5 C 100.693,20.9704 101.36,21.9704 101.5,23.5C 101,26.5 100.5,29.5 100,32.5C 98.8438,33.9928 98.0104,33.8261 97.5,32C 98.4375,28.2079 99.1042,24.3746 99.5,20.5 Z"/></g>
<g><path style="opacity:1" fill="#f1f8fb" d="M 94.5,20.5 C 95.4972,20.4701 96.1639,20.9701 96.5,22C 96.062,23.9203 95.3953,25.7536 94.5,27.5C 93.2857,25.1413 93.2857,22.808 94.5,20.5 Z"/></g>
<g><path style="opacity:1" fill="#ebf5f9" d="M 76.5,20.5 C 77.9311,20.8807 78.7645,21.8807 79,23.5C 79.6103,26.8273 80.1103,30.1606 80.5,33.5C 79.5,33.5 78.5,33.5 77.5,33.5C 77.4135,29.1434 77.0802,24.81 76.5,20.5 Z"/></g>
<g><path style="opacity:1" fill="#b2d7e9" d="M 84.5,18.5 C 86.5,18.5 88.5,18.5 90.5,18.5C 90.5,23.5 90.5,28.5 90.5,33.5C 89.5,33.5 88.5,33.5 87.5,33.5C 87.8256,29.1161 87.4922,24.7828 86.5,20.5C 85.5258,22.7427 85.1924,25.076 85.5,27.5C 84.5,27.5 83.5,27.5 82.5,27.5C 82.0914,24.1445 82.7581,21.1445 84.5,18.5 Z"/></g>
<g><path style="opacity:1" fill="#76c126" d="M 142.5,35.5 C 140.854,32.1898 138.52,29.5232 135.5,27.5C 136.946,26.3871 138.613,26.2204 140.5,27C 143.48,29.4142 144.147,32.2475 142.5,35.5 Z"/></g>
<g><path style="opacity:1" fill="#eaf4f9" d="M 53.5,28.5 C 54.4959,28.4142 55.3292,28.7476 56,29.5C 57.6667,32.1667 59.3333,34.8333 61,37.5C 61.3515,41.0994 60.3515,41.4328 58,38.5C 56.1909,35.2221 54.6909,31.8888 53.5,28.5 Z"/></g>
<g><path style="opacity:1" fill="#eaf4f9" d="M 48.5,31.5 C 52.7011,32.6821 54.3677,35.3487 53.5,39.5C 50.8066,37.4408 49.1399,34.7741 48.5,31.5 Z"/></g>
<g><path style="opacity:1" fill="#69b222" d="M 126.5,23.5 C 126.5,24.1667 126.5,24.8333 126.5,25.5C 125.588,26.7382 125.421,28.0715 126,29.5C 133.763,29.9473 138.263,33.9473 139.5,41.5C 139.5,42.1667 139.167,42.5 138.5,42.5C 135.754,40.8736 132.754,40.2069 129.5,40.5C 126.539,30.4683 121.373,29.1349 114,36.5C 113.51,37.7932 113.343,39.1266 113.5,40.5C 112.503,40.4701 111.836,40.9701 111.5,42C 112.187,43.1618 112.353,44.3284 112,45.5C 109.955,44.0735 107.788,43.0735 105.5,42.5C 111.598,35.0637 118.598,28.7303 126.5,23.5 Z"/></g>
<g><path style="opacity:1" fill="#141618" d="M 126.5,25.5 C 128.167,25.5 129.833,25.5 131.5,25.5C 132.514,26.6737 133.847,27.3404 135.5,27.5C 138.52,29.5232 140.854,32.1898 142.5,35.5C 143.369,37.717 143.702,40.0504 143.5,42.5C 142.041,42.5674 140.708,42.2341 139.5,41.5C 138.263,33.9473 133.763,29.9473 126,29.5C 125.421,28.0715 125.588,26.7382 126.5,25.5 Z"/></g>
<g><path style="opacity:1" fill="#bdd4e5" d="M 126.5,28.5 C 133.879,27.1194 139.046,30.1194 142,37.5C 142.667,38.8333 142.667,40.1667 142,41.5C 140.559,38.1202 138.726,34.9535 136.5,32C 133.33,30.2705 129.997,29.1038 126.5,28.5 Z"/></g>
<g><path style="opacity:1" fill="#ebf5f9" d="M 44.5,35.5 C 45.2389,35.369 45.9056,35.5357 46.5,36C 48.5486,38.5934 50.7152,41.0934 53,43.5C 53.7494,44.635 53.5827,45.635 52.5,46.5C 48.5875,43.6499 45.9208,39.9833 44.5,35.5 Z"/></g>
<g><path style="opacity:1" fill="#171b13" d="M 138.5,42.5 C 141.607,50.6427 138.941,54.976 130.5,55.5C 126.726,54.0618 124.393,51.3951 123.5,47.5C 120.728,47.5952 118.728,48.9285 117.5,51.5C 119.061,52.3473 120.561,52.0139 122,50.5C 122.688,51.3317 122.521,51.9984 121.5,52.5C 119.929,53.3094 118.262,53.6427 116.5,53.5C 116.247,51.1727 116.914,49.1727 118.5,47.5C 118.043,46.7025 117.376,46.3691 116.5,46.5C 114.975,44.7837 113.975,42.7837 113.5,40.5C 113.343,39.1266 113.51,37.7932 114,36.5C 121.373,29.1349 126.539,30.4683 129.5,40.5C 132.754,40.2069 135.754,40.8736 138.5,42.5 Z"/></g>
<g><path style="opacity:1" fill="#ebf4da" d="M 119.5,33.5 C 125.133,33.9613 127.633,36.9613 127,42.5C 123.61,46.0324 119.943,46.3658 116,43.5C 114.581,39.0823 115.748,35.7489 119.5,33.5 Z"/></g>
<g><path style="opacity:1" fill="#131411" d="M 119.5,37.5 C 121.337,37.6395 121.67,38.3061 120.5,39.5C 119.702,39.0431 119.369,38.3764 119.5,37.5 Z"/></g>
<g><path style="opacity:1" fill="#eff7fa" d="M 39.5,39.5 C 42.0692,40.3956 44.0692,42.0623 45.5,44.5C 44.9984,45.521 44.3317,45.6877 43.5,45C 41.5359,43.549 40.2026,41.7157 39.5,39.5 Z"/></g>
<g><path style="opacity:1" fill="#e7f4d3" d="M 129.5,41.5 C 139.097,42.5261 140.764,46.6928 134.5,54C 128.333,54.5 125.5,51.6667 126,45.5C 127.376,44.2949 128.542,42.9616 129.5,41.5 Z"/></g>
<g><path style="opacity:1" fill="#304f12" d="M 113.5,40.5 C 113.975,42.7837 114.975,44.7837 116.5,46.5C 116.631,47.2389 116.464,47.9056 116,48.5C 114.708,47.2089 113.542,47.2089 112.5,48.5C 109.365,45.6528 106.532,45.9861 104,49.5C 103.837,47.6133 104.671,46.1133 106.5,45C 104.934,44.7003 103.601,45.2003 102.5,46.5C 102.738,44.5956 103.738,43.2623 105.5,42.5C 107.788,43.0735 109.955,44.0735 112,45.5C 112.353,44.3284 112.187,43.1618 111.5,42C 111.836,40.9701 112.503,40.4701 113.5,40.5 Z"/></g>
<g><path style="opacity:1" fill="#e9f4f9" d="M 36.5,44.5 C 40.541,46.1989 43.8744,48.8655 46.5,52.5C 45.21,53.4077 43.8767,53.241 42.5,52C 39.8823,49.8943 37.8823,47.3943 36.5,44.5 Z"/></g>
<g><path style="opacity:1" fill="#1c1d19" d="M 131.5,47.5 C 133.337,47.6395 133.67,48.3061 132.5,49.5C 131.702,49.0431 131.369,48.3764 131.5,47.5 Z"/></g>
<g><path style="opacity:1" fill="#70b824" d="M 116.5,46.5 C 117.376,46.3691 118.043,46.7025 118.5,47.5C 116.914,49.1727 116.247,51.1727 116.5,53.5C 116.167,53.5 115.833,53.5 115.5,53.5C 114.752,51.6675 113.752,50.0009 112.5,48.5C 113.542,47.2089 114.708,47.2089 116,48.5C 116.464,47.9056 116.631,47.2389 116.5,46.5 Z"/></g>
<g><path style="opacity:1" fill="#f2f8fb" d="M 32.5,48.5 C 35.0692,49.3956 37.0692,51.0623 38.5,53.5C 38.1667,53.8333 37.8333,54.1667 37.5,54.5C 34.4665,53.518 32.7998,51.518 32.5,48.5 Z"/></g>
<g><path style="opacity:1" fill="#eaf4f9" d="M 29.5,53.5 C 33.6544,55.0766 37.3211,57.4099 40.5,60.5C 40.1667,60.8333 39.8333,61.1667 39.5,61.5C 36.9952,59.7467 34.3286,58.2467 31.5,57C 30.1772,56.1841 29.5106,55.0174 29.5,53.5 Z"/></g>
<g><path style="opacity:1" fill="#6fb824" d="M 130.5,55.5 C 131.167,56.1667 131.833,56.8333 132.5,57.5C 129.19,57.539 126.524,56.2057 124.5,53.5C 124.764,55.4981 126.097,57.1648 128.5,58.5C 130.246,59.0013 131.246,59.6679 131.5,60.5C 130.683,62.9686 130.183,65.6353 130,68.5C 129.617,69.056 129.117,69.3893 128.5,69.5C 130.465,61.277 127.131,56.777 118.5,56C 117.619,55.2917 116.953,54.4584 116.5,53.5C 118.262,53.6427 119.929,53.3094 121.5,52.5C 122.521,51.9984 122.688,51.3317 122,50.5C 120.561,52.0139 119.061,52.3473 117.5,51.5C 118.728,48.9285 120.728,47.5952 123.5,47.5C 124.393,51.3951 126.726,54.0618 130.5,55.5 Z"/></g>
<g><path style="opacity:1" fill="#121907" d="M 132.5,57.5 C 131.432,58.4345 130.099,58.7678 128.5,58.5C 126.097,57.1648 124.764,55.4981 124.5,53.5C 126.524,56.2057 129.19,57.539 132.5,57.5 Z"/></g>
<g><path style="opacity:1" fill="#192015" d="M 112.5,48.5 C 113.752,50.0009 114.752,51.6675 115.5,53.5C 115.833,53.5 116.167,53.5 116.5,53.5C 116.953,54.4584 117.619,55.2917 118.5,56C 127.131,56.777 130.465,61.277 128.5,69.5C 124.85,70.7278 121.184,70.7278 117.5,69.5C 110.784,66.6113 106.284,61.6113 104,54.5C 104.052,56.9111 104.385,59.2445 105,61.5C 103.628,60.0899 102.795,58.4233 102.5,56.5C 101.253,53.2005 101.253,49.8672 102.5,46.5C 103.601,45.2003 104.934,44.7003 106.5,45C 104.671,46.1133 103.837,47.6133 104,49.5C 106.532,45.9861 109.365,45.6528 112.5,48.5 Z"/></g>
<g><path style="opacity:1" fill="#78747a" d="M 115.5,53.5 C 116.649,58.0233 115.983,58.3566 113.5,54.5C 113.957,53.7025 114.624,53.3691 115.5,53.5 Z"/></g>
<g><path style="opacity:1" fill="#74bd26" d="M 117.5,69.5 C 115.885,73.7952 113.218,77.9619 109.5,82C 102.959,84.8533 96.7926,88.3533 91,92.5C 88.2097,97.9172 85.043,103.084 81.5,108C 77.2896,109.623 73.2896,111.623 69.5,114C 62.0742,123.437 52.5742,129.604 41,132.5C 37.5005,132.485 36.1672,130.818 37,127.5C 44.3345,119.595 52.5011,112.762 61.5,107C 67.9617,98.2043 75.4617,90.371 84,83.5C 86.5797,78.916 89.9131,74.916 94,71.5C 96.1935,67.2514 98.1935,62.918 100,58.5C 100.708,57.6195 101.542,56.9528 102.5,56.5C 102.795,58.4233 103.628,60.0899 105,61.5C 104.385,59.2445 104.052,56.9111 104,54.5C 106.284,61.6113 110.784,66.6113 117.5,69.5 Z"/></g>
<g><path style="opacity:1" fill="#a32019" d="M 117.5,60.5 C 122.301,61.9288 123.968,64.9288 122.5,69.5C 121.216,66.2342 119.55,63.2342 117.5,60.5 Z"/></g>
<g><path style="opacity:1" fill="#e7f3f8" d="M 24.5,64.5 C 28.9971,65.2756 32.9971,67.1089 36.5,70C 31.5616,70.0283 27.5616,68.195 24.5,64.5 Z"/></g>
<g><path style="opacity:1" fill="#0d1504" d="M 131.5,60.5 C 133.312,70.1868 129.312,74.0201 119.5,72C 122.167,71.6667 124.833,71.3333 127.5,71C 128.056,70.6174 128.389,70.1174 128.5,69.5C 129.117,69.3893 129.617,69.056 130,68.5C 130.183,65.6353 130.683,62.9686 131.5,60.5 Z"/></g>
<g><path style="opacity:1" fill="#f2f8fb" d="M 22.5,70.5 C 25.3158,70.5442 27.6492,71.5442 29.5,73.5C 29.1667,73.8333 28.8333,74.1667 28.5,74.5C 26.8849,73.846 25.2182,73.346 23.5,73C 22.7476,72.3292 22.4142,71.4959 22.5,70.5 Z"/></g>
<g><path style="opacity:1" fill="#f3f8fb" d="M 21.5,76.5 C 25.6538,76.9489 29.6538,77.9489 33.5,79.5C 33,79.8333 32.5,80.1667 32,80.5C 29.8649,79.8729 27.6982,79.3729 25.5,79C 23.563,78.8784 22.2297,78.045 21.5,76.5 Z"/></g>
<g><path style="opacity:1" fill="#5cafd4" d="M 70.5,150.5 C 69.7691,152.599 69.7691,154.599 70.5,156.5C 72.1019,154.573 73.4353,152.406 74.5,150C 74.2716,149.601 73.9382,149.435 73.5,149.5C 74.5137,148.326 75.847,147.66 77.5,147.5C 76.1333,160.562 77.1333,160.562 80.5,147.5C 80.4573,146.584 80.1239,145.917 79.5,145.5C 91.4199,137.599 102.587,128.599 113,118.5C 116.429,113.981 120.096,109.648 124,105.5C 129.973,95.7113 136.473,86.378 143.5,77.5C 146.886,70.396 150.553,63.396 154.5,56.5C 165.54,85.0255 162.04,111.692 144,136.5C 138.429,142.742 132.262,148.242 125.5,153C 111.257,158.849 96.4241,162.015 81,162.5C 73.0447,161.472 65.5447,159.139 58.5,155.5C 62.5171,153.823 66.5171,152.157 70.5,150.5 Z"/></g>
<g><path style="opacity:1" fill="#f1f8fb" d="M 143.5,77.5 C 147.034,77.0756 150.534,76.4089 154,75.5C 154.833,75.8333 155.667,76.1667 156.5,76.5C 153.121,77.8868 149.621,78.8868 146,79.5C 144.624,79.3158 143.791,78.6491 143.5,77.5 Z"/></g>
<g><path style="opacity:1" fill="#f4f9fc" d="M 150.5,70.5 C 157.027,70.9512 157.027,71.9512 150.5,73.5C 149.833,73.1667 149.167,72.8333 148.5,72.5C 149.243,71.8182 149.909,71.1515 150.5,70.5 Z"/></g>
<g><path style="opacity:1" fill="#e8f3f8" d="M 153.5,81.5 C 154.833,81.5 156.167,81.5 157.5,81.5C 157.5,82.5 157.5,83.5 157.5,84.5C 155.076,84.8076 152.743,84.4742 150.5,83.5C 151.602,82.8243 152.602,82.1577 153.5,81.5 Z"/></g>
<g><path style="opacity:1" fill="#ebf5f9" d="M 144.5,87.5 C 148.846,87.3343 153.179,87.501 157.5,88C 157.957,88.414 158.291,88.914 158.5,89.5C 154.541,90.6599 150.541,90.8265 146.5,90C 145.244,89.5831 144.577,88.7498 144.5,87.5 Z"/></g>
<g><path style="opacity:1" fill="#ecf5fa" d="M 150.5,93.5 C 152.833,93.5 155.167,93.5 157.5,93.5C 157.5,94.5 157.5,95.5 157.5,96.5C 155.801,96.6602 154.134,96.4935 152.5,96C 151.244,95.5831 150.577,94.7498 150.5,93.5 Z"/></g>
<g><path style="opacity:1" fill="#e2f0f7" d="M 21.5,98.5 C 25.5546,98.1758 29.5546,98.5091 33.5,99.5C 29.1702,100.92 24.8369,101.253 20.5,100.5C 20.8627,99.8165 21.1961,99.1499 21.5,98.5 Z"/></g>
<g><path style="opacity:1" fill="#eaf4f9" d="M 144.5,99.5 C 145.274,98.8529 146.274,98.5195 147.5,98.5C 151.033,98.8058 154.367,99.6391 157.5,101C 156.737,101.944 155.737,102.444 154.5,102.5C 151.04,101.803 147.707,100.803 144.5,99.5 Z"/></g>
<g><path style="opacity:1" fill="#f4f9fc" d="M 23.5,104.5 C 31.1517,104.756 31.3184,105.756 24,107.5C 22.3167,106.824 22.1501,105.824 23.5,104.5 Z"/></g>
<g><path style="opacity:1" fill="#f2f8fb" d="M 148.5,104.5 C 150.96,104.699 153.293,105.365 155.5,106.5C 153.926,107.631 152.259,107.798 150.5,107C 149.244,106.583 148.577,105.75 148.5,104.5 Z"/></g>
<g><path style="opacity:1" fill="#e5f1f5" d="M 36.5,107.5 C 36.573,109.027 35.9063,110.027 34.5,110.5C 31.2231,111.112 28.0565,112.112 25,113.5C 23.7425,113.15 23.4092,112.483 24,111.5C 28.0464,109.855 32.2131,108.522 36.5,107.5 Z"/></g>
<g><path style="opacity:1" fill="#ebf5f9" d="M 141.5,107.5 C 145.932,108.881 150.265,110.548 154.5,112.5C 152.163,113.512 149.83,113.345 147.5,112C 144.823,111.186 142.823,109.686 141.5,107.5 Z"/></g>
<g><path style="opacity:1" fill="#eef6fa" d="M 144.5,113.5 C 147.303,114.067 149.636,115.4 151.5,117.5C 149.412,118.489 147.412,118.156 145.5,116.5C 144.614,115.675 144.281,114.675 144.5,113.5 Z"/></g>
<g><path style="opacity:1" fill="#d2e3ea" d="M 31.5,114.5 C 30.396,116.389 29.0627,118.055 27.5,119.5C 26.5222,119.189 25.8555,118.522 25.5,117.5C 27.2433,115.962 29.2433,114.962 31.5,114.5 Z"/></g>
<g><path style="opacity:1" fill="#edf6fa" d="M 137.5,116.5 C 141.593,117.713 145.259,119.713 148.5,122.5C 148,122.833 147.5,123.167 147,123.5C 145.37,122.287 143.536,121.454 141.5,121C 139.365,120.124 138.031,118.624 137.5,116.5 Z"/></g>
<g><path style="opacity:1" fill="#ebf5f9" d="M 139.5,124.5 C 141.484,124.383 143.15,125.05 144.5,126.5C 145.833,127.5 145.833,128.5 144.5,129.5C 142.054,128.476 140.388,126.809 139.5,124.5 Z"/></g>
<g><path style="opacity:1" fill="#eff7fa" d="M 131.5,124.5 C 136.024,126.348 139.69,129.348 142.5,133.5C 141.21,134.408 139.877,134.241 138.5,133C 135.553,130.564 133.22,127.731 131.5,124.5 Z"/></g>
<g><path style="opacity:1" fill="#edf6fa" d="M 124.5,130.5 C 128.315,133.159 131.315,136.659 133.5,141C 133.167,141.5 132.833,142 132.5,142.5C 128.597,139.274 125.93,135.274 124.5,130.5 Z"/></g>
<g><path style="opacity:1" fill="#e4f1f8" d="M 132.5,132.5 C 135.859,132.698 137.692,134.365 138,137.5C 137.586,137.957 137.086,138.291 136.5,138.5C 134.722,136.736 133.389,134.736 132.5,132.5 Z"/></g>
<g><path style="opacity:1" fill="#f2f8fb" d="M 116.5,136.5 C 119.639,140.09 122.306,144.09 124.5,148.5C 124.167,148.833 123.833,149.167 123.5,149.5C 119.867,145.902 117.533,141.568 116.5,136.5 Z"/></g>
<g><path style="opacity:1" fill="#eef6fa" d="M 123.5,138.5 C 126.915,139.364 128.248,141.364 127.5,144.5C 125.167,143.168 123.834,141.168 123.5,138.5 Z"/></g>
<g><path style="opacity:1" fill="#eef6fa" d="M 107.5,141.5 C 109.888,142.219 111.388,143.885 112,146.5C 113.19,149.194 113.356,151.861 112.5,154.5C 109.476,150.77 107.809,146.437 107.5,141.5 Z"/></g>
<g><path style="opacity:1" fill="#e6f3f8" d="M 97.5,143.5 C 98.4959,143.414 99.3292,143.748 100,144.5C 101.499,148.473 101.666,152.473 100.5,156.5C 99.914,156.291 99.414,155.957 99,155.5C 98.3583,151.509 97.8583,147.509 97.5,143.5 Z"/></g>
<g><path style="opacity:1" fill="#f3f9fb" d="M 87.5,144.5 C 88.5,144.5 89.5,144.5 90.5,144.5C 90.5,148.833 90.5,153.167 90.5,157.5C 89.5,157.5 88.5,157.5 87.5,157.5C 87.5,153.167 87.5,148.833 87.5,144.5 Z"/></g>
<g><path style="opacity:1" fill="#e8f3f9" d="M 114.5,144.5 C 117.205,145.69 118.872,147.856 119.5,151C 119.167,151.5 118.833,152 118.5,152.5C 115.833,150.5 114.5,147.833 114.5,144.5 Z"/></g>
<g><path style="opacity:1" fill="#eaf3f6" d="M 79.5,145.5 C 80.1239,145.917 80.4573,146.584 80.5,147.5C 77.1333,160.562 76.1333,160.562 77.5,147.5C 77.8333,146.5 78.5,145.833 79.5,145.5 Z"/></g>
<g><path style="opacity:1" fill="#e7f1f5" d="M 73.5,149.5 C 73.9382,149.435 74.2716,149.601 74.5,150C 73.4353,152.406 72.1019,154.573 70.5,156.5C 69.7691,154.599 69.7691,152.599 70.5,150.5C 71.391,149.89 72.391,149.557 73.5,149.5 Z"/></g>
<g><path style="opacity:1" fill="#edf6fa" d="M 82.5,149.5 C 84.369,151.635 85.0356,154.302 84.5,157.5C 83.5,157.5 82.5,157.5 81.5,157.5C 81.4013,154.763 81.7347,152.096 82.5,149.5 Z"/></g>
</svg>
